<?xml version="1.0" encoding="UTF-8" standalone="no" ?>
<!DOCTYPE svg PUBLIC "-//W3C//DTD SVG 1.1//EN" "http://www.w3.org/Graphics/SVG/1.1/DTD/svg11.dtd">
<svg xmlns="http://www.w3.org/2000/svg" xmlns:xlink="http://www.w3.org/1999/xlink" version="1.1" width="1080" height="1080" viewBox="0 0 1080 1080" xml:space="preserve">
<desc>Created with Fabric.js 5.2.4</desc>
<defs>
</defs>
<g transform="matrix(1 0 0 1 540 540)" id="aaa8fcf5-fc02-48d0-8332-3201dc496894"  >
<rect style="stroke: none; stroke-width: 1; stroke-dasharray: none; stroke-linecap: butt; stroke-dashoffset: 0; stroke-linejoin: miter; stroke-miterlimit: 4; fill: rgb(255,255,255); fill-rule: nonzero; opacity: 1; visibility: hidden;" vector-effect="non-scaling-stroke"  x="-540" y="-540" rx="0" ry="0" width="1080" height="1080" />
</g>
<g transform="matrix(1 0 0 1 540 540)" id="0acd6152-9ff2-43e8-a358-1eb8e62daab4"  >
</g>
<g transform="matrix(NaN NaN NaN NaN 0 0)"  >
<g style=""   >
</g>
</g>
<g transform="matrix(13.07 0 0 13.07 573.99 551.74)" id="Check-Icon-09iujhd"  >
<path style="stroke: rgb(0,0,0); stroke-opacity: 0; stroke-width: 0; stroke-dasharray: none; stroke-linecap: butt; stroke-dashoffset: 0; stroke-linejoin: miter; stroke-miterlimit: 4; fill: rgb(23,24,31); fill-rule: nonzero; opacity: 1;" vector-effect="non-scaling-stroke"  transform=" translate(-82.51, -76.54)" d="M 115.739 61.78 L 78.282 99.237 C 77.22117344405198 100.29985160110448 75.78116790861857 100.89712594065844 74.2795 100.89712594065844 C 72.77783209138143 100.89712594065844 71.33782655594801 100.29985160110448 70.277 99.237 L 49.3 78.257 C 47.136457058156275 76.04212965102138 47.15722446293712 72.49893859473119 49.34658152883415 70.30958152883416 C 51.53593859473117 68.12022446293713 55.079129651021375 68.09945705815629 57.294 70.263 L 74.279 87.24 L 107.734 53.773999999999994 C 109.95372672952352 51.618518993465166 113.49281891840727 51.644501677593006 115.68065862040713 53.83234137959287 C 117.86849832240698 56.020181081592725 117.89448100653482 59.55927327047647 115.73899999999999 61.778999999999996" stroke-linecap="round" />
</g>
<g transform="matrix(NaN NaN NaN NaN 0 0)"  >
<g style=""   >
</g>
</g>
</svg>