<?xml version="1.0" encoding="UTF-8" standalone="no" ?>
<!DOCTYPE svg PUBLIC "-//W3C//DTD SVG 1.1//EN" "http://www.w3.org/Graphics/SVG/1.1/DTD/svg11.dtd">
<svg xmlns="http://www.w3.org/2000/svg" xmlns:xlink="http://www.w3.org/1999/xlink" version="1.1" width="1080" height="1080" viewBox="0 0 1080 1080" xml:space="preserve">
<desc>Created with Fabric.js 5.2.4</desc>
<defs>
</defs>
<g transform="matrix(1 0 0 1 540 540)" id="d309cfdc-a12c-4abe-9ba9-3b1a312185d0"  >
<rect style="stroke: none; stroke-width: 1; stroke-dasharray: none; stroke-linecap: butt; stroke-dashoffset: 0; stroke-linejoin: miter; stroke-miterlimit: 4; fill: rgb(255,255,255); fill-rule: nonzero; opacity: 1; visibility: hidden;" vector-effect="non-scaling-stroke"  x="-540" y="-540" rx="0" ry="0" width="1080" height="1080" />
</g>
<g transform="matrix(1 0 0 1 540 540)" id="19284d3d-5877-4b78-85dd-18ac849cea25"  >
</g>
<g transform="matrix(8.66 0 0 8.66 546.12 518.94)" id="cb039efb-e5ca-496a-8ad3-efd9e790981c"  >
<path style="stroke: rgb(140,141,152); stroke-width: 0; stroke-dasharray: none; stroke-linecap: butt; stroke-dashoffset: 0; stroke-linejoin: miter; stroke-miterlimit: 4; fill: rgb(140,141,152); fill-rule: nonzero; opacity: 1;" vector-effect="non-scaling-stroke"  transform=" translate(-61.44, -51.8)" d="M 10.368 0 L 112.512 0 C 118.215 0 122.879 4.665 122.879 10.367 L 122.879 10.367 C 122.879 16.069000000000003 118.215 20.735 112.512 20.735 L 10.368 20.735 C 4.666 20.735 0 16.07 0 10.368 L 0 10.368 C 0 4.665 4.666 0 10.368 0 L 10.368 0 z M 10.368 82.875 L 112.512 82.875 C 118.215 82.875 122.879 87.54 122.879 93.242 L 122.879 93.242 C 122.879 98.944 118.215 103.60900000000001 112.512 103.60900000000001 L 10.368 103.60900000000001 C 4.666 103.609 0 98.944 0 93.242 L 0 93.242 C 0 87.54 4.666 82.875 10.368 82.875 L 10.368 82.875 z M 10.368 41.438 L 112.512 41.438 C 118.215 41.438 122.879 46.103 122.879 51.80500000000001 L 122.879 51.80500000000001 C 122.879 57.507000000000005 118.215 62.17300000000001 112.512 62.17300000000001 L 10.368 62.17300000000001 C 4.666 62.173 0 57.507 0 51.805 L 0 51.805 C 0 46.103 4.666 41.438 10.368 41.438 L 10.368 41.438 z" stroke-linecap="round" />
</g>
<g transform="matrix(NaN NaN NaN NaN 0 0)"  >
<g style=""   >
</g>
</g>
<g transform="matrix(NaN NaN NaN NaN 0 0)"  >
<g style=""   >
</g>
</g>
</svg>